<svg width="48" height="48" viewBox="0 0 48 48" fill="none" xmlns="http://www.w3.org/2000/svg">
<path d="M0 10C0 4.47715 4.47715 0 10 0H38C43.5229 0 48 4.47715 48 10V38C48 43.5229 43.5228 48 38 48H10C4.47715 48 0 43.5228 0 38V10Z" fill="#FFCDCC"/>
<g clip-path="url(#clip0_199_78)">
<path d="M32.34 36C29.84 36 27.37 35.455 24.93 34.365C22.49 33.275 20.27 31.73 18.27 29.73C16.27 27.73 14.725 25.51 13.635 23.07C12.545 20.63 12 18.16 12 15.66C12 15.3 12.12 15 12.36 14.76C12.6 14.52 12.9 14.4 13.26 14.4H18.12C18.4 14.4 18.65 14.495 18.87 14.685C19.09 14.875 19.22 15.1 19.26 15.36L20.04 19.56C20.08 19.88 20.07 20.15 20.01 20.37C19.95 20.59 19.84 20.78 19.68 20.94L16.77 23.88C17.17 24.62 17.645 25.335 18.195 26.025C18.745 26.715 19.35 27.38 20.01 28.02C20.63 28.64 21.28 29.215 21.96 29.745C22.64 30.275 23.36 30.76 24.12 31.2L26.94 28.38C27.12 28.2 27.355 28.065 27.645 27.975C27.935 27.885 28.22 27.86 28.5 27.9L32.64 28.74C32.92 28.82 33.15 28.965 33.33 29.175C33.51 29.385 33.6 29.62 33.6 29.88V34.74C33.6 35.1 33.48 35.4 33.24 35.64C33 35.88 32.7 36 32.34 36ZM15.63 21.6L17.61 19.62L17.1 16.8H14.43C14.53 17.62 14.67 18.43 14.85 19.23C15.03 20.03 15.29 20.82 15.63 21.6ZM26.37 32.34C27.15 32.68 27.945 32.95 28.755 33.15C29.565 33.35 30.38 33.48 31.2 33.54V30.9L28.38 30.33L26.37 32.34ZM30 24C28.34 24 26.925 23.415 25.755 22.245C24.585 21.075 24 19.66 24 18C24 16.34 24.585 14.925 25.755 13.755C26.925 12.585 28.34 12 30 12C31.66 12 33.075 12.585 34.245 13.755C35.415 14.925 36 16.34 36 18C36 19.66 35.415 21.075 34.245 22.245C33.075 23.415 31.66 24 30 24ZM29.4 21.6H30.6V16.8H29.4V21.6ZM30 15.6C30.16 15.6 30.3 15.54 30.42 15.42C30.54 15.3 30.6 15.16 30.6 15C30.6 14.84 30.54 14.7 30.42 14.58C30.3 14.46 30.16 14.4 30 14.4C29.84 14.4 29.7 14.46 29.58 14.58C29.46 14.7 29.4 14.84 29.4 15C29.4 15.16 29.46 15.3 29.58 15.42C29.7 15.54 29.84 15.6 30 15.6Z" fill="#FF0000"/>
</g>
<defs>
<clipPath id="clip0_199_78">
<rect width="24" height="24" fill="white" transform="translate(12 12)"/>
</clipPath>
</defs>
</svg>
