<svg width="48" height="48" viewBox="0 0 48 48" fill="none" xmlns="http://www.w3.org/2000/svg">
<path d="M0 10C0 4.47715 4.47715 0 10 0H38C43.5229 0 48 4.47715 48 10V38C48 43.5229 43.5228 48 38 48H10C4.47715 48 0 43.5228 0 38V10Z" fill="#CCE6FF"/>
<path d="M24 15.8206V13.8206H34V15.8206H24ZM24 19.8206V17.8206H34V19.8206H24ZM24 23.8206V21.8206H34V23.8206H24ZM30.95 33.8206C28.8667 33.8206 26.8083 33.3664 24.775 32.4581C22.7417 31.5497 20.8917 30.2622 19.225 28.5956C17.5583 26.9289 16.2708 25.0789 15.3625 23.0456C14.4542 21.0122 14 18.9539 14 16.8706C14 16.5706 14.1 16.3206 14.3 16.1206C14.5 15.9206 14.75 15.8206 15.05 15.8206H19.1C19.3333 15.8206 19.5417 15.8997 19.725 16.0581C19.9083 16.2164 20.0167 16.4039 20.05 16.6206L20.7 20.1206C20.7333 20.3872 20.725 20.6122 20.675 20.7956C20.625 20.9789 20.5333 21.1372 20.4 21.2706L17.975 23.7206C18.3083 24.3372 18.7042 24.9331 19.1625 25.5081C19.6208 26.0831 20.125 26.6372 20.675 27.1706C21.1917 27.6872 21.7333 28.1664 22.3 28.6081C22.8667 29.0497 23.4667 29.4539 24.1 29.8206L26.45 27.4706C26.6 27.3206 26.7958 27.2081 27.0375 27.1331C27.2792 27.0581 27.5167 27.0372 27.75 27.0706L31.2 27.7706C31.4333 27.8372 31.625 27.9581 31.775 28.1331C31.925 28.3081 32 28.5039 32 28.7206V32.7706C32 33.0706 31.9 33.3206 31.7 33.5206C31.5 33.7206 31.25 33.8206 30.95 33.8206ZM17.025 21.8206L18.675 20.1706L18.25 17.8206H16.025C16.1083 18.5039 16.225 19.1789 16.375 19.8456C16.525 20.5122 16.7417 21.1706 17.025 21.8206ZM25.975 30.7706C26.625 31.0539 27.2875 31.2789 27.9625 31.4456C28.6375 31.6122 29.3167 31.7206 30 31.7706V29.5706L27.65 29.0956L25.975 30.7706Z" fill="#0474FC"/>
</svg>
