<svg width="48" height="48" viewBox="0 0 48 48" fill="none" xmlns="http://www.w3.org/2000/svg">
<path d="M0 10C0 4.47715 4.47715 0 10 0H38C43.5229 0 48 4.47715 48 10V38C48 43.5229 43.5228 48 38 48H10C4.47715 48 0 43.5228 0 38V10Z" fill="#CCE6FF"/>
<path d="M30.8667 36.6L22.8 28.4667C22.3556 28.6444 21.9056 28.7778 21.45 28.8667C20.9944 28.9556 20.5111 29 20 29C17.7778 29 15.8889 28.2222 14.3333 26.6667C12.7778 25.1111 12 23.2222 12 21C12 20.2 12.1111 19.4389 12.3333 18.7167C12.5556 17.9944 12.8667 17.3111 13.2667 16.6667L18.1333 21.5333L20.5333 19.1333L15.6667 14.2667C16.3111 13.8667 16.9944 13.5556 17.7167 13.3333C18.4389 13.1111 19.2 13 20 13C22.2222 13 24.1111 13.7778 25.6667 15.3333C27.2222 16.8889 28 18.7778 28 21C28 21.5111 27.9556 21.9944 27.8667 22.45C27.7778 22.9056 27.6444 23.3556 27.4667 23.8L35.6 31.8667C35.8667 32.1333 36 32.4556 36 32.8333C36 33.2111 35.8667 33.5333 35.6 33.8L32.8 36.6C32.5333 36.8667 32.2111 37 31.8333 37C31.4556 37 31.1333 36.8667 30.8667 36.6ZM31.8333 33.7667L32.7333 32.8667L24.2 24.3333C24.6 23.8889 24.8889 23.3722 25.0667 22.7833C25.2444 22.1944 25.3333 21.6 25.3333 21C25.3333 19.6667 24.9056 18.5056 24.05 17.5167C23.1944 16.5278 22.1333 15.9333 20.8667 15.7333L23.3333 18.2C23.6 18.4667 23.7333 18.7778 23.7333 19.1333C23.7333 19.4889 23.6 19.8 23.3333 20.0667L19.0667 24.3333C18.8 24.6 18.4889 24.7333 18.1333 24.7333C17.7778 24.7333 17.4667 24.6 17.2 24.3333L14.7333 21.8667C14.9333 23.1333 15.5278 24.1944 16.5167 25.05C17.5056 25.9056 18.6667 26.3333 20 26.3333C20.5778 26.3333 21.1556 26.2444 21.7333 26.0667C22.3111 25.8889 22.8333 25.6111 23.3 25.2333L31.8333 33.7667Z" fill="#0474FC"/>
</svg>
