<svg width="48" height="48" viewBox="0 0 48 48" fill="none" xmlns="http://www.w3.org/2000/svg">
<path d="M0 10C0 4.47715 4.47715 0 10 0H38C43.5229 0 48 4.47715 48 10V38C48 43.5229 43.5228 48 38 48H10C4.47715 48 0 43.5228 0 38V10Z" fill="#CCE6FF"/>
<path d="M24 35C21.1889 35 18.7394 34.0681 16.6514 32.2042C14.5634 30.3403 13.3667 28.013 13.0611 25.2222H15.5667C15.8519 27.3407 16.794 29.0926 18.3931 30.4778C19.9921 31.863 21.8611 32.5556 24 32.5556C26.3833 32.5556 28.4051 31.7255 30.0653 30.0653C31.7255 28.4051 32.5556 26.3833 32.5556 24C32.5556 21.6167 31.7255 19.5949 30.0653 17.9347C28.4051 16.2745 26.3833 15.4444 24 15.4444C22.5944 15.4444 21.2806 15.7704 20.0583 16.4222C18.8361 17.0741 17.8074 17.9704 16.9722 19.1111H20.3333V21.5556H13V14.2222H15.4444V17.0944C16.4833 15.7907 17.7514 14.7824 19.2486 14.0694C20.7458 13.3565 22.3296 13 24 13C25.5278 13 26.9588 13.2903 28.2931 13.8708C29.6273 14.4514 30.7884 15.2356 31.7764 16.2236C32.7644 17.2116 33.5486 18.3727 34.1292 19.7069C34.7097 21.0412 35 22.4722 35 24C35 25.5278 34.7097 26.9588 34.1292 28.2931C33.5486 29.6273 32.7644 30.7884 31.7764 31.7764C30.7884 32.7644 29.6273 33.5486 28.2931 34.1292C26.9588 34.7097 25.5278 35 24 35ZM27.4222 29.1333L22.7778 24.4889V17.8889H25.2222V23.5111L29.1333 27.4222L27.4222 29.1333Z" fill="#0474FC"/>
</svg>
