<svg width="48" height="48" viewBox="0 0 48 48" fill="none" xmlns="http://www.w3.org/2000/svg">
<path d="M0 10C0 4.47715 4.47715 0 10 0H38C43.5229 0 48 4.47715 48 10V38C48 43.5229 43.5228 48 38 48H10C4.47715 48 0 43.5228 0 38V10Z" fill="#CCE6FF"/>
<path d="M23.875 32C23.9417 32 24.0083 31.9833 24.075 31.95C24.1417 31.9167 24.1917 31.8833 24.225 31.85L32.425 23.65C32.625 23.45 32.7708 23.225 32.8625 22.975C32.9542 22.725 33 22.475 33 22.225C33 21.9583 32.9542 21.7042 32.8625 21.4625C32.7708 21.2208 32.625 21.0083 32.425 20.825L28.175 16.575C27.9917 16.375 27.7792 16.2292 27.5375 16.1375C27.2958 16.0458 27.0417 16 26.775 16C26.525 16 26.275 16.0458 26.025 16.1375C25.775 16.2292 25.55 16.375 25.35 16.575L25.075 16.85L26.925 18.725C27.175 18.9583 27.3583 19.225 27.475 19.525C27.5917 19.825 27.65 20.1417 27.65 20.475C27.65 21.175 27.4125 21.7625 26.9375 22.2375C26.4625 22.7125 25.875 22.95 25.175 22.95C24.8417 22.95 24.5208 22.8917 24.2125 22.775C23.9042 22.6583 23.6333 22.4833 23.4 22.25L21.525 20.4L17.15 24.775C17.1 24.825 17.0625 24.8792 17.0375 24.9375C17.0125 24.9958 17 25.0583 17 25.125C17 25.2583 17.05 25.3792 17.15 25.4875C17.25 25.5958 17.3667 25.65 17.5 25.65C17.5667 25.65 17.6333 25.6333 17.7 25.6C17.7667 25.5667 17.8167 25.5333 17.85 25.5L21.25 22.1L22.65 23.5L19.275 26.9C19.225 26.95 19.1875 27.0042 19.1625 27.0625C19.1375 27.1208 19.125 27.1833 19.125 27.25C19.125 27.3833 19.175 27.5 19.275 27.6C19.375 27.7 19.4917 27.75 19.625 27.75C19.6917 27.75 19.7583 27.7333 19.825 27.7C19.8917 27.6667 19.9417 27.6333 19.975 27.6L23.375 24.225L24.775 25.625L21.4 29.025C21.35 29.0583 21.3125 29.1083 21.2875 29.175C21.2625 29.2417 21.25 29.3083 21.25 29.375C21.25 29.5083 21.3 29.625 21.4 29.725C21.5 29.825 21.6167 29.875 21.75 29.875C21.8167 29.875 21.8792 29.8625 21.9375 29.8375C21.9958 29.8125 22.05 29.775 22.1 29.725L25.5 26.35L26.9 27.75L23.5 31.15C23.45 31.2 23.4125 31.2542 23.3875 31.3125C23.3625 31.3708 23.35 31.4333 23.35 31.5C23.35 31.6333 23.4042 31.75 23.5125 31.85C23.6208 31.95 23.7417 32 23.875 32ZM23.85 34C23.2333 34 22.6875 33.7958 22.2125 33.3875C21.7375 32.9792 21.4583 32.4667 21.375 31.85C20.8083 31.7667 20.3333 31.5333 19.95 31.15C19.5667 30.7667 19.3333 30.2917 19.25 29.725C18.6833 29.6417 18.2125 29.4042 17.8375 29.0125C17.4625 28.6208 17.2333 28.15 17.15 27.6C16.5167 27.5167 16 27.2417 15.6 26.775C15.2 26.3083 15 25.7583 15 25.125C15 24.7917 15.0625 24.4708 15.1875 24.1625C15.3125 23.8542 15.4917 23.5833 15.725 23.35L21.525 17.575L24.8 20.85C24.8333 20.9 24.8833 20.9375 24.95 20.9625C25.0167 20.9875 25.0833 21 25.15 21C25.3 21 25.425 20.9542 25.525 20.8625C25.625 20.7708 25.675 20.65 25.675 20.5C25.675 20.4333 25.6625 20.3667 25.6375 20.3C25.6125 20.2333 25.575 20.1833 25.525 20.15L21.95 16.575C21.7667 16.375 21.5542 16.2292 21.3125 16.1375C21.0708 16.0458 20.8167 16 20.55 16C20.3 16 20.05 16.0458 19.8 16.1375C19.55 16.2292 19.325 16.375 19.125 16.575L15.6 20.125C15.45 20.275 15.325 20.45 15.225 20.65C15.125 20.85 15.0583 21.05 15.025 21.25C14.9917 21.45 14.9917 21.6542 15.025 21.8625C15.0583 22.0708 15.125 22.2667 15.225 22.45L13.775 23.9C13.4917 23.5167 13.2833 23.0958 13.15 22.6375C13.0167 22.1792 12.9667 21.7167 13 21.25C13.0333 20.7833 13.15 20.3292 13.35 19.8875C13.55 19.4458 13.825 19.05 14.175 18.7L17.7 15.175C18.1 14.7917 18.5458 14.5 19.0375 14.3C19.5292 14.1 20.0333 14 20.55 14C21.0667 14 21.5708 14.1 22.0625 14.3C22.5542 14.5 22.9917 14.7917 23.375 15.175L23.65 15.45L23.925 15.175C24.325 14.7917 24.7708 14.5 25.2625 14.3C25.7542 14.1 26.2583 14 26.775 14C27.2917 14 27.7958 14.1 28.2875 14.3C28.7792 14.5 29.2167 14.7917 29.6 15.175L33.825 19.4C34.2083 19.7833 34.5 20.225 34.7 20.725C34.9 21.225 35 21.7333 35 22.25C35 22.7667 34.9 23.2708 34.7 23.7625C34.5 24.2542 34.2083 24.6917 33.825 25.075L25.625 33.25C25.3917 33.4833 25.1208 33.6667 24.8125 33.8C24.5042 33.9333 24.1833 34 23.85 34Z" fill="#0474FC"/>
</svg>
